<?xml version="1.0" encoding="utf-8"?>
<!-- Generator: Adobe Illustrator 17.1.0, SVG Export Plug-In . SVG Version: 6.00 Build 0)  -->
<!DOCTYPE svg PUBLIC "-//W3C//DTD SVG 1.1//EN" "http://www.w3.org/Graphics/SVG/1.1/DTD/svg11.dtd">
<svg version="1.1" xmlns="http://www.w3.org/2000/svg" xmlns:xlink="http://www.w3.org/1999/xlink" x="0px" y="0px"
	 viewBox="0 0 500 500" enable-background="new 0 0 500 500" xml:space="preserve">
<g id="Layer_1">
	<linearGradient id="SVGID_1_" gradientUnits="userSpaceOnUse" x1="72.8851" y1="240.3103" x2="432.0805" y2="240.3103">
		<stop  offset="0" style="stop-color:#5BC098"/>
		<stop  offset="1" style="stop-color:#14815B"/>
	</linearGradient>
	<circle fill="url(#SVGID_1_)" stroke="#14815B" stroke-width="10" stroke-miterlimit="10" cx="252.5" cy="240.3" r="179.6"/>
</g>
<g id="Layer_2">
	<g>
		<path fill="#FFFFFF" d="M376.2,255.3c-3.4-15.9-6.8-31.6-10.4-45.9c-3.2-22.9-6.3-44.6-9.4-65.6c-1.2-6.2-1.1-13.1-4.4-18.6
			c-3.5-6.5-11.8-7.6-17.8-10c-4.8-1.7-9.6-3.4-14.4-5.1l-0.7-0.2l-70.4-15.7c-0.7-0.1-1.2-0.1-1.7,0c-0.1,0-2,0.4-3.7,1.2
			c-1,0.5-2.1,1.5-3,3c-0.3,1-0.5,2-0.6,3.2c-0.3,1-0.8,2.1-1.3,3.3c-1.9,3-3,7.6-4.6,13.5c-1.7,5.7-2.8,12-6.4,19.3
			c-0.4,0.9-0.5,1.6-0.5,2.2c0,1.2,0.2,2.1,0.4,3c0.7,2.7,2.4,5.4,2.5,5.5c1.2,1.2,2.5,1.9,3.7,2c0,0,0.1,0,0.4,0.1
			c0.1,0,0.2,0.1,0.3,0.1c0.1,0.1,0.1,0.2,0.2,0.3c0.2,0.6,0.2,1.3,0,2.4c-0.2,1.3-0.5,3.1-0.8,5c-0.2,1.8-0.4,3.5-0.5,5
			c-0.1,0.5,0,1.2,0.3,1.9c0.3,0.6,0.9,1.3,1.8,1.8l0.1,0c4.1,2.2,7.3,5.6,10.9,6l0,0c3.1-0.3,5.3-0.5,7.3-1.3
			c2.8-0.9,4.8-2.8,6.3-4.6c2.5,2.2,6.2,4.7,12.5,4.3c0.5-0.1,1-0.1,1.4-0.2c0.9,0.6,2.2,1.9,4.7,2.6c3.5,0.9,7.4,3.1,12.8,3.4
			c0.5,0.1,1.1,0.2,1.6,0.3c-0.1,1-0.2,2.6-0.6,5.7c0.1,6-0.3,10.7-1.2,14.3c-0.8,3.4-1.6,6-1.9,6.5c-4.5,6.1-12.1,14.2-18.5,24
			c-2.4,4.4-4.8,9.4-6.6,12.9c-0.5-0.1-0.9-0.2-1.4-0.3c-1.8-0.8-3.9-3-6.2-7c-3.8-5.2-8.7-10.9-16.3-15.5c-7.6-4.7-17.7-8.3-32-8.9
			c-22.2-3.3-35.9,2.1-49.9,11.3c-13.7,7.4-22.2,17.2-28.7,29.5c-5.2,11.5-6.9,23.6-6.1,30.8c0.7,6.7-3.3,11.8-4,18.2
			c-1.1,10.6,3,24.7,8.1,33.9c6.3,11.5,17.7,27.1,31.4,34.3c14.3,8.8,29.4,11.6,42.6,13.3l0.1,0c15.3-0.6,34.1-5.4,42.1-8.9
			c9.9-3.2,29.4-6.3,33.5-8.2c1-0.6,3-0.9,5.3-0.8c4.3-0.1,13.7,2.3,25.9,2.8c9.3,0.4,19.7,0.1,29.4-3.6c1.9-1.1,4.5-2.8,7.6-4.6
			c1.7-0.9,3.4-1.8,4.9-2.8c1.5-1.1,2.9-2.2,3.9-4c1.3-2.6,1.5-5.1,1.8-7.1c0-0.2,0.1-0.4,0.1-0.6c0.2-0.7,0.3-1.4,0.5-2
			c0.1-0.7,0.2-1.3,0.3-2c0.1-0.2,0.1-0.5,0.2-0.7c2-7.1,6.3-18.7,8.9-26.5c2.8-7.9,7.6-21.5,10.4-42.6c0-0.1,0-0.2,0-0.3
			C376.6,265.7,376.6,261.3,376.2,255.3z"/>
		<path fill="#14815B" d="M263.3,106.2c-1.1,0-2,0.1-3.1,0.3c-1.3,0.1-1.1,1.5-2.7,4c-0.2,0.2-0.3,0.5-0.5,0.7
			c-0.2,0.8-0.1,1.4,0.1,2.2c0.7,1.2,1.2,2.1,1.5,2.8c0.4-0.2,0.7-1,0.8-1.5c0.1-0.3,0.2-0.5,0.3-0.8c0,0,0,0,0,0c0,0,0,0,0-0.1
			c-0.2-1,1.8-3.7,3.1-3.6c2.3,0,5.1,0.9,10,3.3c0.4-0.2,0.8-0.3,1.3-0.6C270.9,107.8,266.5,105.9,263.3,106.2z M286.4,115.3
			c-2.6-1.5-5.4-1.9-7.8-2c-0.7,0-1.3,0-1.8,0c-0.9,0.5-1.6,1.1-2.1,1.6c-0.7,1.3-1.1,5.7-1,8.8c1.9,2.6,2.9,2.7,2.1,0.5
			c0,0,0.3-0.6,0.8-2.3c-1.6-2.8,0.8-4.5,2.8-5.1c1.3,0.3,3.5,1.2,5.3,2c2,0.3,3.8,0.1,4.7,1.6c0.2-0.4,0.3-0.6,0.5-0.7
			c0.3-0.1,0.6-0.1,0.9-0.2C289.7,118,288.1,116.6,286.4,115.3z M376.2,255.3c-3.4-15.9-6.8-31.6-10.4-45.9
			c-3.2-22.9-6.3-44.6-9.4-65.6c-1.2-6.2-1.1-13.1-4.4-18.6c-3.5-6.5-11.8-7.6-17.8-10c-4.8-1.7-9.6-3.4-14.4-5.1l-0.7-0.2
			l-70.4-15.7c-0.7-0.1-1.2-0.1-1.7,0c-0.1,0-2,0.4-3.7,1.2c-1,0.5-2.1,1.5-3,3c-0.3,1-0.5,2-0.6,3.2c-0.3,1-0.8,2.1-1.3,3.3
			c-1.9,3-3,7.6-4.6,13.5c-1.7,5.7-2.8,12-6.4,19.3c-0.4,0.9-0.5,1.6-0.5,2.2c0,1.2,0.2,2.1,0.4,3c0.7,2.7,2.4,5.4,2.5,5.5
			c1.2,1.2,2.5,1.9,3.7,2c0,0,0.1,0,0.4,0.1c0.1,0,0.2,0.1,0.3,0.1c0.1,0.1,0.1,0.2,0.2,0.3c0.2,0.6,0.2,1.3,0,2.4
			c-0.2,1.3-0.5,3.1-0.8,5c-0.2,1.8-0.4,3.5-0.5,5c-0.1,0.5,0,1.2,0.3,1.9c0.3,0.6,0.9,1.3,1.8,1.8l0.1,0c4.1,2.2,7.3,5.6,10.9,6
			l0,0c3.1-0.3,5.3-0.5,7.3-1.3c2.8-0.9,4.8-2.8,6.3-4.6c2.5,2.2,6.2,4.7,12.5,4.3c0.5-0.1,1-0.1,1.4-0.2c0.9,0.6,2.2,1.9,4.7,2.6
			c3.5,0.9,7.4,3.1,12.8,3.4c0.5,0.1,1.1,0.2,1.6,0.3c-0.1,1-0.2,2.6-0.6,5.7c0.1,6-0.3,10.7-1.2,14.3c-0.8,3.4-1.6,6-1.9,6.5
			c-4.5,6.1-12.1,14.2-18.5,24c-2.4,4.4-4.8,9.4-6.6,12.9c-0.5-0.1-0.9-0.2-1.4-0.3c-1.8-0.8-3.9-3-6.2-7
			c-3.8-5.2-8.7-10.9-16.3-15.5c-7.6-4.7-17.7-8.3-32-8.9c-22.2-3.3-35.9,2.1-49.9,11.3c-13.7,7.4-22.2,17.2-28.7,29.5
			c-5.2,11.5-6.9,23.6-6.1,30.8c0.7,6.7-3.3,11.8-4,18.2c-1.1,10.6,3,24.7,8.1,33.9c6.3,11.5,17.7,27.1,31.4,34.3
			c14.3,8.8,29.4,11.6,42.6,13.3l0.1,0c15.3-0.6,34.1-5.4,42.1-8.9c9.9-3.2,29.4-6.3,33.5-8.2c1-0.6,3-0.9,5.3-0.8
			c4.3-0.1,13.7,2.3,25.9,2.8c9.3,0.4,19.7,0.1,29.4-3.6c1.9-1.1,4.5-2.8,7.6-4.6c1.7-0.9,3.4-1.8,4.9-2.8c1.5-1.1,2.9-2.2,3.9-4
			c1.3-2.6,1.5-5.1,1.8-7.1c0-0.2,0.1-0.4,0.1-0.6c0.2-0.7,0.3-1.4,0.5-2c0.1-0.7,0.2-1.3,0.3-2c0.1-0.2,0.1-0.5,0.2-0.7
			c2-7.1,6.3-18.7,8.9-26.5c2.8-7.9,7.6-21.5,10.4-42.6c0-0.1,0-0.2,0-0.3C376.6,265.7,376.6,261.3,376.2,255.3z M249.1,166.1
			c-1.1,0.5-2.3,0.7-3.7,0.6c-1.5-0.2-3.5-0.9-6.2-2.9c0-0.7-0.1-2.2-0.3-3.8c0.1-1.6,0.5-3,1.2-4.5c0.6,2,2.9,4,5,5.6
			c2.3,1.7,4.6,2.6,6.8,3C251.1,165,250.1,165.7,249.1,166.1z M364.4,271.1c-1.5,15.7-4.9,25.8-7.4,31.3c-0.7-2.9-1.7-7.1-2.5-10.8
			c-0.1-2.8-1.6-10.2-3.2-12.1c-0.7,3.7-0.3,9.3,0.1,13.5c0.7,14.2-0.5,25.9-0.5,35.6c-0.1,0.1-0.1,0.3-0.2,0.4
			c-0.5,1.1-1,2.7-1.4,4.8c-0.1,1.3-0.1,2.7,0,4c-0.1,0.5-0.1,1.1-0.2,1.6c-0.2,0.9-0.3,1.9-0.5,2.7c-0.3,0.9-0.6,1.8-1,2.6
			c-0.6,0.1-1.3,0.4-1.9,0.9c-6.3,4.7-13,5.7-21.9,7.8c-2.8,0.7-4.9,1.4-6.8,1.9c-1.8,0.5-3.5,0.8-5.9,0.7c-0.1,0-0.2,0-0.3,0
			c-5.3-0.2-10.7-1.3-19.4-2.6c-9.3-1.4-13.5-3.3-21.6-4.2c-1.9,0.1-3.5,0.8-4.8,2.1c-1.3,1.1-3.3,1.5-5.7,1.5
			c-6.7-0.2-15.4-1.6-25.3-2.2c-4-0.4-6.7-0.8-8.2-1.1c-1.1,0.3-2.1,0.5-3.2,0.8c0.5,0.5,1.1,1.1,2,1.5c0.3,0.1,11.4,4.2,23,7.3
			c-4.1,1.3-8,2.7-11.8,3.9c-8.5,2.9-17.5,5.2-28.5,4.6c-10.8-0.4-23.5-2.9-39.7-10.9c-16.4-8.2-26.4-18-32.4-28.5
			c-5.9-10.5-7.9-21.8-7.2-32.5c1.2-4.3,2.6-8.4,3.1-12.1c-0.5-8.1,0.2-24.5,11.5-40.1c5.7-7.2,12.8-12.9,23.6-18.5
			c9.2-4.4,19-5.9,40.6-3.3c20-0.4,29.6,6.1,37.1,11.6c3.8,2.7,6.7,6,9.8,9c1.5,1.3,3.2,2.5,5.1,3.4c0.8,0.4,1.7,0.8,2.6,1.2
			c-1.6,5-2.8,11.4-3,17.5c0,1.2-0.1,2.4-0.1,3.6c0,13.3,2.6,25.8,8.6,38.4c0.8,2,2.2,3.7,3.3,4.5c0.4,0.2,0.8,0.1,1.1-0.2
			c0.9-1.8,1-3.2,0.1-3.7c-3.9-14.5-5-26.8-4.7-38.9c0-1.1,0.1-2.1,0.2-3.2c0.8-12.4,5.9-21.9,11.8-30.1
			c4.5-5.9,11.3-15.9,17.1-21.6c1.2-0.9,1.7-2.8,2.9-6.6c1.9-7.8,2.8-15,2.9-20c-0.1-4.1-0.3-7.3-0.4-8.9c0-0.1,0-0.2,0-0.3
			c1.7-1,3.4-1.8,5-2.5c0.6-0.4,1.1-1.2,1.5-2c1.6-2.8,2.1-4.7,2.4-7.6c0.1-0.6,0.3-1.1,0.7-1.6c0.9,0.1,2.7,0.6,5.2,1.4
			c0.4,0.1,0.8,0.2,1.2,0.3l3.1,17.8l1.2-18c1.4-0.3,2.9-0.8,4.2-1.5c2.1-2.2,3.1-6.3,4.5-11.1c1-2,1.3-3.7,0-4.2
			c-1.5-0.6-3.7,0.6-4.5,2.8c-1.2,3.1-2.7,4.5-4,5.1c-1.4,0.5-3.2,0.5-5,0.2c-0.9-0.1-1.7-0.2-2.4-0.3c-0.7-1-1.9-2.1-3-3
			c-1.4-1.5-3.4-4.3-4.8-5.3c-0.2,0-0.5,0.1-0.7,0.2c0.5-1,0.7-2.6,0.9-3.8c0.1-0.5,0.2-0.9,0.3-1.1c0.1-0.2,0.1-0.3,0.1-0.3
			c1.1-1.2,0.7-2.1-0.9-2.4c-1.1-0.7-1.6-0.3-1.9,0.6c-0.1,0.1-6.4,7.9-7.1,18.6l0,0.2c0,0.2-0.1,0.4-0.1,0.5
			c-0.1,0.2-0.2,0.5-0.4,1.1c-0.1,0.3-0.3,0.7-0.3,1.1c0,0.5,0.7,1.1,1.8,1.1c1.7,0,2.4-0.8,2.8-1.1c0.7-0.7,0.8-0.9,1-1.2
			c0.5-0.9,0.8-1.6,1.2-2.5c0.3-0.8,0.7-1.7,1-2.6c0.9,0.6,1.6,1.3,1.7,1.6l0.1,0.2l0,0c0.1,0.7-0.9,3.1-1.9,5.8
			c-0.7,2-1,3.6-1.3,4.5c-0.1,0.2-0.1,0.4-0.2,0.5c-3.1,1.7-6,2.2-9,2.3c-0.7,0-1.3,0-1.9,0c-4.6-0.3-8.3-1.9-11.6-3.6
			c-0.4-0.3-0.8-0.5-1.2-0.8c4.8-18,6.1-26.2,6.2-26.4c1.7-2.5,1-4.9-1.2-5.4c-2-0.4-3.2,1.2-3.1,3.7c0,0-0.1,0.5-0.4,1.6
			c-1.2,2.8-3.5,10.4-6.9,23.4c-0.2,0-0.4,0.1-0.5,0.2c-0.3,0.1-0.6,0.1-0.9,0.1c-1.8,0-5.6-1.7-7.8-3.5c-0.2-0.2-0.4-0.4-0.6-0.6
			c0.1-0.2,0.1-0.3,0.2-0.5c7.2-18.5,8.6-28.3,8.6-28.5c0.7-2.1-0.3-3.9-2.2-4.8c-1.8-0.3-1.8,1.7-1.4,4.1c0,0,0,0.1-0.1,0.4
			c-1,1.8-6,10.5-10.1,26.6c-1.3,0.1-3.6-0.2-5.9-0.9c-1.6-0.6-2.7-1.2-3.4-1.8c-0.5-0.5-0.7-0.9-0.9-1.3c0.1-0.3,0.1-0.5,0.2-0.8
			c7.7-19.1,9.5-30.4,9.5-30.5c0.8-1.2-0.4-3.3-3.6-4.9c-2.3-0.4-2.8,1.7-0.5,4.2c0,0,0.1,0.1,0.2,0.4c0,1.6-6.7,10.5-10.2,26.2
			c-3-2.5-7.1-3.5-8.8-4.3c-0.2-0.5-0.3-1-0.5-1.5c-0.1-0.5-0.2-1-0.3-1.3c0,0,0-0.1,0-0.1c3.4-8.2,3.9-15.5,6.2-23.7
			c2-11.5,3.3-9.2,4.2-5.8c0.1-0.2,0.2-0.3,0.4-0.5c-0.1-5.7,0.9-8.6,2.5-8.8c1.7-0.1,3.5,0.2,5.4,1c1.4,0.9,3.2,2,4.7,3.4
			c0.1-0.2,0.1-0.5,0.1-0.6c0.1-0.1,0.2-0.2,0.4-0.3c-0.7-2.2-1.8-3.7-3.3-4.5c-0.1,0-0.2-0.1-0.2-0.1l62.5,15.5
			c4.8,1.9,9.7,3.9,14.5,5.7c3.3,1.3,6.5,2.5,9.7,3.9c2,0.9,3.3,2.5,4.3,4.5l1.4,28.7l2.3-6.5c2.6,18.1,6,43,8.8,65.2
			c2.4,10.4,4.8,20.5,5.6,30.5c-0.5,6.2-0.5,11.5-0.2,15.4c0.5,3.5,0.8,6.2,0.7,7.4C364.4,271,364.4,271.1,364.4,271.1z M293.8,121
			c-0.9,0.2-1.7,0.4-2.3,0.2c-0.5,1-1.4,4.8-1.5,7.9c0,0.6-0.1,0.9-0.2,1.1c0.5,0.6,1,0.8,1.3,0.8c0,0,0,0,0,0c0,0,0-0.1,0-0.1
			c0.2-0.6,0.8-4.7,3-7.1c3,0.4,6,1.7,9.3,1.7c0.4,0.1,0.8,0.3,1.2,0.5c0.2,0.2,0.3,0.3,0.5,0.4c0.5,0.3,0.8-0.1,0.6-1
			C302.4,123.2,297.7,120.9,293.8,121z M247,300.1c-20,4.8-32.9,9.1-45.9,8.5c-0.6,0-1.1,0-1.7-0.1c-27.7-1.6-45-14.8-55.6-22.2
			c-1.6-0.6-3.6-1.2-4.6-1.1c-1.1,0.2-1,1.2,0.2,2c10,13.6,27.3,28.3,58.2,32c0.9-0.2,1.7-0.3,2.5-0.5c17.8,0.5,31-5.9,49.7-16.4
			c2.2-0.8,3-2,2.3-2.5C251.4,299.3,249.3,299.8,247,300.1z"/>
	</g>
</g>
</svg>
