<?xml version="1.0" encoding="utf-8"?>
<!-- Generator: Adobe Illustrator 17.1.0, SVG Export Plug-In . SVG Version: 6.00 Build 0)  -->
<!DOCTYPE svg PUBLIC "-//W3C//DTD SVG 1.1//EN" "http://www.w3.org/Graphics/SVG/1.1/DTD/svg11.dtd">
<svg version="1.1" id="Layer_1" xmlns="http://www.w3.org/2000/svg" xmlns:xlink="http://www.w3.org/1999/xlink" x="0px" y="0px"
	 viewBox="0 0 1000 1000" enable-background="new 0 0 1000 1000" xml:space="preserve">
<circle fill="#454D66" cx="500" cy="500" r="500"/>
<path fill="#353E5A" d="M993.6,579.8L730.3,316.5L368.7,581.4L280,695.7l298.2,298.2C791.2,960.5,959.5,792.6,993.6,579.8z"/>
<path fill="#A7EAB2" d="M222.2,500c0,153,123.8,277.1,276.7,277.8V222.3C346,222.9,222.2,347,222.2,500z"/>
<path fill="#A5EFB1" d="M500,222.2c-0.4,0-0.7,0-1.1,0v555.5c0.4,0,0.7,0,1.1,0c153.4,0,277.8-124.4,277.8-277.8
	S653.4,222.2,500,222.2z"/>
<g>
	<rect x="483.2" y="222.2" fill="#58B368" width="33.7" height="555.6"/>
	<path fill="#58B368" d="M500,205.4c-162.5,0-294.6,132.2-294.6,294.6S337.5,794.6,500,794.6S794.6,662.5,794.6,500
		S662.5,205.4,500,205.4z M500,760.9c-38.4,0-75.1-26-103.4-73.2c-3.5-5.8-6.8-11.9-9.9-18.1c35.4,9.1,73.8,13.9,113.3,13.9
		s77.9-4.8,113.3-13.9c-3.1,6.3-6.4,12.3-9.9,18.1C575.1,734.9,538.4,760.9,500,760.9z M500,649.8c-46.3,0-90.6-7-129.7-20.1
		c-11.5-34.3-18.3-72.7-19.8-112.9h299c-1.5,40.2-8.3,78.6-19.8,112.9C590.6,642.8,546.3,649.8,500,649.8z M500,239.1
		c38.4,0,75.1,26,103.4,73.2c3.5,5.8,6.8,11.9,9.9,18.1c-35.4-9.1-73.8-13.9-113.3-13.9s-77.9,4.8-113.3,13.9
		c3.1-6.3,6.4-12.3,9.9-18.1C424.9,265.1,461.6,239.1,500,239.1z M500,350.2c46.3,0,90.6,7,129.7,20.1
		c11.5,34.3,18.3,72.7,19.8,112.9h-299c1.5-40.2,8.3-78.6,19.8-112.9C409.4,357.2,453.7,350.2,500,350.2z M683.2,483.2
		c-1.2-33.6-5.8-66.1-13.6-96.5c6.3,3.1,12.3,6.4,18.1,9.9c40.2,24.1,65,54.4,71.4,86.6L683.2,483.2L683.2,483.2z M316.8,483.2h-76
		c6.4-32.2,31.2-62.4,71.4-86.6c5.8-3.5,11.9-6.8,18.1-9.9C322.6,417.1,318,449.6,316.8,483.2z M316.8,516.8
		c1.2,33.6,5.8,66.1,13.6,96.5c-6.3-3.1-12.3-6.4-18.1-9.9c-40.2-24.1-65-54.4-71.4-86.6H316.8L316.8,516.8z M683.2,516.8h76
		c-6.4,32.2-31.2,62.4-71.4,86.6c-5.8,3.5-11.9,6.8-18.1,9.9C677.4,582.9,682,550.4,683.2,516.8z M736.5,389.9
		c-9.4-7.8-19.9-15.3-31.4-22.2c-15.1-9.1-31.6-17-49.1-23.7c-6.8-17.5-14.7-34-23.7-49.1c-6.9-11.5-14.4-22-22.2-31.4
		C665.6,289.4,710.6,334.4,736.5,389.9z M389.9,263.5c-7.8,9.4-15.3,19.9-22.2,31.4c-9.1,15.1-17,31.6-23.7,49.1
		c-17.5,6.8-34,14.7-49.1,23.7c-11.5,6.9-22,14.4-31.4,22.2C289.4,334.4,334.4,289.4,389.9,263.5z M263.5,610.1
		c9.4,7.8,19.9,15.3,31.4,22.2c15.1,9.1,31.6,17,49.1,23.7c6.8,17.5,14.7,34,23.7,49.1c6.9,11.5,14.4,22,22.2,31.4
		C334.4,710.6,289.4,665.6,263.5,610.1z M610.1,736.5c7.8-9.4,15.3-19.9,22.2-31.4c9.1-15.1,17-31.6,23.7-49.1
		c17.5-6.8,34-14.7,49.1-23.7c11.5-6.9,22-14.4,31.4-22.2C710.6,665.6,665.6,710.6,610.1,736.5z"/>
</g>
<path fill="#309975" d="M500,205.4c-0.4,0-0.7,0-1.1,0v589.2c0.4,0,0.7,0,1.1,0c162.5,0,294.6-132.2,294.6-294.6
	S662.5,205.4,500,205.4z M736.5,389.9c-9.4-7.8-19.9-15.3-31.4-22.2c-15.1-9.1-31.6-17-49.1-23.7c-6.8-17.5-14.7-34-23.7-49.1
	c-6.9-11.5-14.4-22-22.2-31.4C665.6,289.4,710.6,334.4,736.5,389.9z M759.2,483.2h-76c-1.2-33.6-5.8-66.1-13.6-96.5
	c6.3,3.1,12.3,6.4,18.1,9.9C728,420.7,752.8,451,759.2,483.2z M516.8,240.8c32.2,6.4,62.4,31.2,86.6,71.4c3.5,5.8,6.8,11.9,9.9,18.1
	c-30.4-7.8-62.9-12.4-96.5-13.6L516.8,240.8L516.8,240.8z M516.8,350.5c40.2,1.5,78.6,8.3,112.9,19.8
	c11.5,34.3,18.3,72.7,19.8,112.9H516.8V350.5z M516.8,516.8h132.7c-1.5,40.2-8.3,78.6-19.8,112.9c-34.3,11.5-72.7,18.3-112.9,19.8
	L516.8,516.8L516.8,516.8z M516.8,759.2v-76c33.6-1.2,66.1-5.8,96.5-13.6c-3.1,6.3-6.4,12.3-9.9,18.1
	C579.3,728,549,752.8,516.8,759.2z M610.1,736.5c7.8-9.4,15.3-19.9,22.2-31.4c9.1-15.1,17-31.6,23.7-49.1
	c17.5-6.8,34-14.7,49.1-23.7c11.5-6.9,22-14.4,31.4-22.2C710.6,665.6,665.6,710.6,610.1,736.5z M687.8,603.4
	c-5.8,3.5-11.9,6.8-18.1,9.9c7.8-30.4,12.4-62.9,13.6-96.5h76C752.8,549,728,579.3,687.8,603.4z"/>
<path fill="#13815B" d="M528.9,764.5l21.7-37.7c26.4-45.8,10.6-104.2-35.1-130.6l-37.7-21.7l-21.7,37.7
	c-26.4,45.8-10.6,104.2,35.1,130.6L528.9,764.5z"/>
<path fill="#599B13" d="M536,797.2c-4.5,0-8.5-3-9.8-7.5l-38.5-143.1c-1.4-5.4,1.7-10.9,7.1-12.4c5.4-1.4,10.9,1.7,12.4,7.1
	l38.5,143.1c1.4,5.4-1.7,10.9-7.1,12.4C537.7,797,536.8,797.2,536,797.2z"/>
<path fill="#58B368" d="M535.7,789.2v-65.7c0-79.8,64.7-144.4,144.4-144.4h65.7v65.7c0,79.8-64.7,144.4-144.4,144.4L535.7,789.2
	L535.7,789.2z"/>
<path fill="#309975" d="M535.7,787.5v1.6h65.7c79.8,0,144.4-64.7,144.4-144.4v-65.7h-1.6L535.7,787.5z"/>
<path fill="#599B13" d="M506.7,828.3c-2.6,0-5.2-1-7.1-3c-3.9-3.9-3.9-10.3,0-14.3l158.3-158.3c3.9-3.9,10.3-3.9,14.3,0
	c3.9,3.9,3.9,10.3,0,14.3L513.8,825.3C511.9,827.3,509.3,828.3,506.7,828.3z"/>
<path fill="#528C0E" d="M671.3,652L498.8,824.4c0.2,0.3,0.5,0.6,0.7,0.9c2,2,4.6,3,7.1,3c2.6,0,5.2-1,7.1-3L672.2,667
	c3.9-3.9,3.9-10.3,0-14.3C671.9,652.4,671.6,652.2,671.3,652z"/>
</svg>
