<?xml version="1.0" encoding="utf-8"?>
<!-- Generator: Adobe Illustrator 17.1.0, SVG Export Plug-In . SVG Version: 6.00 Build 0)  -->
<!DOCTYPE svg PUBLIC "-//W3C//DTD SVG 1.1//EN" "http://www.w3.org/Graphics/SVG/1.1/DTD/svg11.dtd">
<svg version="1.1" id="Layer_1" xmlns="http://www.w3.org/2000/svg" xmlns:xlink="http://www.w3.org/1999/xlink" x="0px" y="0px"
	 viewBox="0 0 800 800" enable-background="new 0 0 800 800" xml:space="preserve">
<polygon fill="#586079" points="114.7,378 114.7,596.1 467.9,800 685.3,674.5 685.3,456.5 332.1,252.6 "/>
<g>
	<polygon fill="#272C40" points="169.1,376.5 467.9,549 630.9,454.9 332.1,282.4 	"/>
	<polygon fill="#454D66" points="114.7,378 114.7,596.1 467.9,800 467.9,582 	"/>
</g>
<polygon fill="#3A4158" points="685.3,456.5 685.3,674.5 467.9,800 467.9,582 "/>
<polygon fill="#EFEEB4" points="169.1,309.5 169.1,376.5 277.6,439.2 344.5,400.6 344.5,333.6 235.9,270.9 "/>
<polygon fill="#DAD873" points="169.1,309.5 169.1,376.5 277.6,439.2 277.6,372.2 "/>
<polygon fill="#DAD873" points="344.5,333.6 344.5,400.6 277.6,439.2 277.6,372.2 "/>
<path fill="#777D90" d="M400.1,443.6v-57.2l0,0c0-7-4.6-14.1-13.9-19.4c-18.5-10.7-48.8-10.7-67.3,0c-9.3,5.3-13.9,12.4-13.9,19.4
	l0,0v57.2h0c0,7,4.6,14.1,13.9,19.4c18.5,10.7,48.8,10.7,67.3,0C395.4,457.7,400.1,450.7,400.1,443.6L400.1,443.6z"/>
<path fill="#A7A9AF" d="M318.9,367c-18.5,10.7-18.5,28.2,0,38.8c18.5,10.7,48.8,10.7,67.3,0c18.5-10.7,18.5-28.1,0-38.8
	C367.7,356.3,337.4,356.3,318.9,367z"/>
<polygon fill="#EFEEB4" points="386.4,435 386.4,502 467.9,549 534.7,510.4 534.7,443.4 453.2,396.4 "/>
<polygon fill="#DAD873" points="386.4,435 386.4,502 467.9,549 467.9,482 "/>
<polygon fill="#DAD873" points="534.7,443.4 534.7,510.4 467.9,549 467.9,482 "/>
<g>
	<path fill="#D8D8DA" d="M147.9,151.5L147.9,151.5L147.9,151.5c0-0.9-0.6-1.8-1.8-2.5c-2.3-1.4-6.2-1.4-8.5,0
		c-1.2,0.7-1.8,1.6-1.8,2.5v228c0,0.9,0.6,1.8,1.8,2.5c2.4,1.4,6.2,1.4,8.5,0c1.2-0.7,1.8-1.6,1.8-2.5
		C147.9,379.5,147.9,151.5,147.9,151.5z"/>
	<path fill="#D8D8DA" d="M474,337.9L474,337.9L474,337.9c0-0.9-0.6-1.8-1.8-2.5c-2.3-1.4-6.2-1.4-8.5,0c-1.2,0.7-1.8,1.6-1.8,2.5
		v228c0,0.9,0.6,1.8,1.8,2.5c2.4,1.4,6.2,1.4,8.5,0c1.2-0.7,1.8-1.6,1.8-2.5C474,565.9,474,337.9,474,337.9z"/>
</g>
<path fill="#C6C5CB" d="M664.1,229.2L664.1,229.2L664.1,229.2c0-0.9-0.6-1.8-1.8-2.5c-2.3-1.4-6.2-1.4-8.5,0
	c-1.2,0.7-1.8,1.6-1.8,2.5v228c0,0.9,0.6,1.8,1.8,2.5c2.3,1.4,6.2,1.4,8.5,0c1.2-0.7,1.8-1.6,1.8-2.5
	C664.1,457.2,664.1,229.2,664.1,229.2z"/>
<polygon fill="#77CA85" points="114.7,156.9 467.9,360.8 685.3,235.3 685.3,203.9 332.1,0 114.7,125.5 "/>
<polygon fill="#2B8767" points="114.7,125.5 467.9,329.4 685.3,203.9 332.1,0 "/>
<polygon fill="#71C17F" points="332.1,0 332.1,31.4 114.7,125.5 "/>
<polygon fill="#58B368" points="114.7,125.5 332.1,31.4 550.9,157.7 467.9,329.4 "/>
<polygon fill="#454D66" points="181.6,42.6 181.6,164.4 419.5,301.8 434.2,293.4 434.2,171.3 196.8,34.2 "/>
<polygon fill="#3A4158" points="419.5,301.8 434.2,293.4 434.2,171.3 419.5,179.7 "/>
<polygon fill="#586079" points="181.6,42.6 196.8,34.2 434.2,171.3 419.5,179.7 "/>
<polygon fill="#30906F" points="550.9,157.7 685.3,203.9 467.9,329.4 "/>
<polygon fill="#2B8767" points="467.9,329.4 467.9,360.8 685.3,235.3 685.3,203.9 "/>
<path fill="#FFFFFF" d="M241.2,112.4l0,9.5L218,108.6l0,14.4l19.3,11.1l0,8.8l-19.3-11.1l-0.1,23.1l-9.5-5.5l0.2-55.9L241.2,112.4
	 M267.5,174.3c2.3,1.3,4.3,1.9,6.1,1.9c1.8-0.1,3.3-0.6,4.5-1.7c1.2-1.1,2.1-2.6,2.8-4.4c0.6-1.9,0.9-4,0.9-6.3c0-2.4-0.3-4.9-1-7.6
	c-0.7-2.6-1.6-5.2-2.8-7.6c-1.2-2.4-2.7-4.7-4.4-6.7c-1.8-2-3.7-3.7-5.9-5c-2.3-1.3-4.3-2-6.1-1.9c-1.8,0.1-3.3,0.6-4.5,1.7
	c-1.2,1.1-2.1,2.6-2.7,4.4c-0.6,1.9-0.9,4-0.9,6.3c0,2.4,0.3,4.9,0.9,7.6c0.6,2.6,1.6,5.2,2.8,7.6c1.2,2.4,2.7,4.7,4.4,6.7
	C263.2,171.4,265.2,173,267.5,174.3 M267.7,127.3c3.5,2,6.7,4.7,9.6,8c2.9,3.3,5.4,6.9,7.4,10.8c2,3.9,3.6,7.8,4.8,11.9
	c1.1,4.1,1.7,7.9,1.7,11.4c0,3.7-0.6,6.9-1.8,9.6c-1.2,2.7-2.8,4.7-5,6.1c-2.1,1.4-4.6,2-7.5,1.9c-2.9-0.1-6.1-1.2-9.5-3.2
	c-3.6-2.1-6.8-4.7-9.7-8c-2.9-3.3-5.4-6.8-7.4-10.7c-2.1-3.8-3.7-7.8-4.8-11.9c-1.1-4.1-1.7-7.9-1.7-11.5c0-3.7,0.6-6.9,1.8-9.6
	c1.2-2.7,2.9-4.8,5-6.2c2.1-1.4,4.7-2,7.6-1.9C261.1,124.3,264.3,125.4,267.7,127.3 M319.2,204.2c2.3,1.3,4.3,1.9,6.1,1.9
	c1.8-0.1,3.2-0.6,4.5-1.7c1.2-1.1,2.1-2.6,2.8-4.4c0.6-1.9,0.9-4,0.9-6.3c0-2.4-0.3-4.9-1-7.6c-0.7-2.6-1.6-5.2-2.8-7.6
	c-1.2-2.4-2.7-4.7-4.4-6.7c-1.8-2-3.7-3.7-5.9-4.9c-2.3-1.3-4.3-2-6.1-1.9c-1.8,0.1-3.3,0.6-4.5,1.7c-1.2,1.1-2.1,2.5-2.7,4.4
	c-0.6,1.9-0.9,4-0.9,6.3c0,2.4,0.3,4.9,0.9,7.6c0.6,2.6,1.6,5.2,2.8,7.6c1.2,2.4,2.7,4.7,4.4,6.7C315,201.2,317,202.9,319.2,204.2
	 M319.5,157.2c3.5,2,6.7,4.7,9.6,8c2.9,3.3,5.4,6.9,7.4,10.8c2,3.9,3.6,7.8,4.8,11.9c1.1,4.1,1.7,7.9,1.7,11.4
	c0,3.7-0.6,6.9-1.8,9.6c-1.2,2.7-2.9,4.7-5,6.1c-2.1,1.4-4.6,2-7.6,1.9c-2.9-0.1-6.1-1.2-9.5-3.2c-3.6-2.1-6.8-4.7-9.7-8
	c-2.9-3.3-5.4-6.8-7.4-10.7c-2.1-3.8-3.7-7.8-4.8-11.9c-1.1-4.1-1.7-7.9-1.7-11.5c0-3.7,0.6-6.9,1.8-9.6c1.2-2.7,2.9-4.8,5-6.2
	c2.1-1.4,4.7-2,7.6-1.9C312.9,154.2,316.1,155.3,319.5,157.2 M359.6,227.2l8.2,4.7c2.3,1.3,4.4,2.1,6.2,2.2c1.8,0.1,3.3-0.3,4.5-1.3
	c1.2-1,2.1-2.4,2.8-4.3c0.6-1.9,1-4.1,1-6.8c0-2.7-0.3-5.3-0.9-7.9c-0.6-2.6-1.6-5.1-2.8-7.4c-1.2-2.3-2.7-4.5-4.5-6.4
	c-1.8-1.9-3.8-3.6-6.1-4.9l-8.2-4.7L359.6,227.2 M368,185.6c4,2.3,7.4,5,10.4,8.2c3,3.2,5.5,6.6,7.5,10.3c2,3.7,3.5,7.5,4.5,11.5
	c1,4,1.5,7.9,1.5,11.7c0,4.3-0.6,7.8-1.7,10.6c-1.1,2.8-2.8,4.8-4.9,6c-2.1,1.2-4.6,1.7-7.6,1.3c-2.9-0.4-6.2-1.6-9.9-3.7
	l-17.7-10.2l0.2-55.9L368,185.6"/>
</svg>
